<svg width="25" height="25" viewBox="0 0 25 25" fill="none" xmlns="http://www.w3.org/2000/svg">
<path fill-rule="evenodd" clip-rule="evenodd" d="M14.7765 13.0362L12.5 11.6122L10.2235 13.0362V15.5127H14.7765L14.7765 13.0362ZM12.5 13.0039L11.4235 13.6772V14.3408H13.5765V13.6772L12.5 13.0039Z" fill="#57685B" fill-opacity="0.9"/>
<path fill-rule="evenodd" clip-rule="evenodd" d="M12.4999 7.92231L18.0656 11.7421L18.0656 18.3852H6.93425V11.7421L12.4999 7.92231ZM8.53425 12.5538L12.4999 9.83209L16.4656 12.5538L16.4656 16.8227H8.53425V12.5538Z" fill="#57685B" fill-opacity="0.9"/>
<path fill-rule="evenodd" clip-rule="evenodd" d="M20.9787 10.0519C21.1809 10.1994 21.3 10.4314 21.3 10.6779L21.3 20.6689C21.3 21.1004 20.9418 21.4502 20.5 21.4502H4.5C4.05817 21.4502 3.7 21.1004 3.7 20.6689V10.6779C3.7 10.4314 3.81907 10.1994 4.02125 10.052L12.0212 4.21629C12.3052 4.00917 12.6948 4.00917 12.9788 4.21629L20.9787 10.0519ZM12.5 5.81735L5.3 11.0694V19.8877H19.7L19.7 11.0694L12.5 5.81735Z" fill="#57685B" fill-opacity="0.9"/>
<path fill-rule="evenodd" clip-rule="evenodd" d="M23.5602 8.17128C24.1526 8.61483 24.5 9.30231 24.5 10.0313L24.5 22.1562C24.5 23.4507 23.4255 24.5 22.1 24.5H2.9C1.57452 24.5 0.5 23.4507 0.5 22.1562V10.0313C0.5 9.30232 0.847348 8.61483 1.43976 8.17129L11.0398 0.983738C11.9012 0.338753 13.0988 0.338754 13.9602 0.983739L17.3 3.48423V1.84359C17.3 1.41212 17.6582 1.06234 18.1 1.06234H21.3C21.7418 1.06234 22.1 1.41212 22.1 1.84359V7.078L23.5602 8.17128ZM22.5867 9.4113L12.9867 2.22376C12.6996 2.00876 12.3004 2.00876 12.0133 2.22376L2.41325 9.41131C2.21578 9.55915 2.1 9.78832 2.1 10.0313V22.1562C2.1 22.5877 2.45817 22.9375 2.9 22.9375H22.1C22.5418 22.9375 22.9 22.5877 22.9 22.1562L22.9 10.0313C22.9 9.78831 22.7842 9.55915 22.5867 9.4113ZM20.5 5.88008V2.62485H18.9V4.68216L20.5 5.88008Z" fill="#57685B" fill-opacity="0.9"/>
</svg>
