<svg width="25" height="25" viewBox="0 0 25 25" fill="none" xmlns="http://www.w3.org/2000/svg">
<path fill-rule="evenodd" clip-rule="evenodd" d="M24.5 21.3C24.5 23.0673 23.3061 24.5 21.8333 24.5H3.16667C1.69391 24.5 0.5 23.0673 0.5 21.3V3.7C0.5 1.93269 1.69391 0.5 3.16667 0.5H21.8333C23.3061 0.5 24.5 1.93269 24.5 3.7V21.3ZM21.8333 2.1H3.16667C2.43029 2.1 1.83333 2.81634 1.83333 3.7V4.1281C2.22556 3.85583 2.68095 3.7 3.16667 3.7H21.8333C22.319 3.7 22.7744 3.85583 23.1667 4.1281V3.7C23.1667 2.81634 22.5697 2.1 21.8333 2.1ZM21.8333 5.3H3.16667C2.43029 5.3 1.83333 6.01634 1.83333 6.9V7.3281C2.22556 7.05583 2.68095 6.9 3.16667 6.9H21.8333C22.319 6.9 22.7744 7.05583 23.1667 7.3281V6.9C23.1667 6.01634 22.5697 5.3 21.8333 5.3ZM1.83333 10.1V10.5281C2.22556 10.2558 2.68095 10.1 3.16667 10.1H8.67907C8.75491 10.1 8.82396 10.1514 8.86007 10.2315L9.70324 12.1005C10.259 13.3325 11.3326 14.1 12.5 14.1C13.6674 14.1 14.741 13.3325 15.2968 12.1005L16.1399 10.2315C16.176 10.1514 16.2451 10.1 16.3209 10.1H21.8333C22.319 10.1 22.7744 10.2558 23.1667 10.5281V10.1C23.1667 9.21634 22.5697 8.5 21.8333 8.5H3.16667C2.43029 8.5 1.83333 9.21634 1.83333 10.1ZM3.16667 11.7H8.00638L8.53069 12.8622C9.31947 14.6107 10.8431 15.7 12.5 15.7C14.1569 15.7 15.6805 14.6107 16.4693 12.8622L16.9936 11.7H21.8333C22.5697 11.7 23.1667 12.4163 23.1667 13.3V21.3C23.1667 22.1837 22.5697 22.9 21.8333 22.9H3.16667C2.43029 22.9 1.83333 22.1837 1.83333 21.3V13.3C1.83333 12.4163 2.43029 11.7 3.16667 11.7Z" fill="#DBDED7"/>
</svg>
