<svg width="25" height="25" viewBox="0 0 25 25" fill="none" xmlns="http://www.w3.org/2000/svg">
<path fill-rule="evenodd" clip-rule="evenodd" d="M17.1152 4.62161C19.1544 4.62161 20.8075 3.69896 20.8075 2.56081C20.8075 1.42265 19.1544 0.5 17.1152 0.5C15.076 0.5 13.4229 1.42265 13.4229 2.56081C13.4229 3.69896 15.076 4.62161 17.1152 4.62161ZM17.1152 3.28828C17.8351 3.28828 18.4186 2.96258 18.4186 2.56081C18.4186 2.15903 17.8351 1.83333 17.1152 1.83333C16.3954 1.83333 15.8118 2.15903 15.8118 2.56081C15.8118 2.96258 16.3954 3.28828 17.1152 3.28828Z" fill="#D5D5CE" fill-opacity="0.9"/>
<path fill-rule="evenodd" clip-rule="evenodd" d="M12.4999 8.52873C14.5391 8.52873 16.1922 7.60607 16.1922 6.46792C16.1922 5.32977 14.5391 4.40711 12.4999 4.40711C10.4607 4.40711 8.80759 5.32977 8.80759 6.46792C8.80759 7.60607 10.4607 8.52873 12.4999 8.52873ZM12.4999 7.1954C13.2197 7.1954 13.8033 6.86969 13.8033 6.46792C13.8033 6.06615 13.2197 5.74045 12.4999 5.74045C11.78 5.74045 11.1965 6.06615 11.1965 6.46792C11.1965 6.86969 11.78 7.1954 12.4999 7.1954Z" fill="#D5D5CE" fill-opacity="0.9"/>
<path fill-rule="evenodd" clip-rule="evenodd" d="M11.5768 10.3319C11.5768 11.4701 9.9237 12.3927 7.8845 12.3927C5.8453 12.3927 4.19221 11.4701 4.19221 10.3319C4.19221 9.19377 5.8453 8.27112 7.8845 8.27112C9.9237 8.27112 11.5768 9.19377 11.5768 10.3319ZM9.1879 10.3319C9.1879 10.7337 8.60435 11.0594 7.8845 11.0594C7.16466 11.0594 6.58111 10.7337 6.58111 10.3319C6.58111 9.93015 7.16466 9.60445 7.8845 9.60445C8.60435 9.60445 9.1879 9.93015 9.1879 10.3319Z" fill="#D5D5CE" fill-opacity="0.9"/>
<path fill-rule="evenodd" clip-rule="evenodd" d="M16.1921 14.4536C16.1921 15.5917 14.539 16.5144 12.4998 16.5144C10.4606 16.5144 8.80754 15.5917 8.80754 14.4536C8.80754 13.3154 10.4606 12.3927 12.4998 12.3927C14.539 12.3927 16.1921 13.3154 16.1921 14.4536ZM13.8032 14.4536C13.8032 14.8553 13.2197 15.181 12.4998 15.181C11.78 15.181 11.1964 14.8553 11.1964 14.4536C11.1964 14.0518 11.78 13.7261 12.4998 13.7261C13.2197 13.7261 13.8032 14.0518 13.8032 14.4536Z" fill="#D5D5CE" fill-opacity="0.9"/>
<path fill-rule="evenodd" clip-rule="evenodd" d="M16.1921 22.4392C16.1921 23.5773 14.539 24.5 12.4998 24.5C10.4606 24.5 8.80754 23.5773 8.80754 22.4392C8.80754 21.301 10.4606 20.3784 12.4998 20.3784C14.539 20.3784 16.1921 21.301 16.1921 22.4392ZM13.8032 22.4392C13.8032 22.841 13.2197 23.1667 12.4998 23.1667C11.78 23.1667 11.1964 22.841 11.1964 22.4392C11.1964 22.0374 11.78 21.7117 12.4998 21.7117C13.2197 21.7117 13.8032 22.0374 13.8032 22.4392Z" fill="#D5D5CE" fill-opacity="0.9"/>
<path fill-rule="evenodd" clip-rule="evenodd" d="M7.8845 20.636C9.9237 20.636 11.5768 19.7133 11.5768 18.5752C11.5768 17.437 9.9237 16.5144 7.8845 16.5144C5.8453 16.5144 4.19221 17.437 4.19221 18.5752C4.19221 19.7133 5.8453 20.636 7.8845 20.636ZM7.8845 19.3026C8.60435 19.3026 9.1879 18.9769 9.1879 18.5752C9.1879 18.1734 8.60435 17.8477 7.8845 17.8477C7.16466 17.8477 6.58111 18.1734 6.58111 18.5752C6.58111 18.9769 7.16466 19.3026 7.8845 19.3026Z" fill="#D5D5CE" fill-opacity="0.9"/>
<path fill-rule="evenodd" clip-rule="evenodd" d="M24.5 14.4536C24.5 15.5917 22.8469 16.5144 20.8077 16.5144C18.7685 16.5144 17.1154 15.5917 17.1154 14.4536C17.1154 13.3154 18.7685 12.3927 20.8077 12.3927C22.8469 12.3927 24.5 13.3154 24.5 14.4536ZM22.1111 14.4536C22.1111 14.8553 21.5276 15.181 20.8077 15.181C20.0879 15.181 19.5043 14.8553 19.5043 14.4536C19.5043 14.0518 20.0879 13.7261 20.8077 13.7261C21.5276 13.7261 22.1111 14.0518 22.1111 14.4536Z" fill="#D5D5CE" fill-opacity="0.9"/>
<path fill-rule="evenodd" clip-rule="evenodd" d="M17.1152 20.636C19.1544 20.636 20.8075 19.7133 20.8075 18.5752C20.8075 17.437 19.1544 16.5144 17.1152 16.5144C15.076 16.5144 13.4229 17.437 13.4229 18.5752C13.4229 19.7133 15.076 20.636 17.1152 20.636ZM17.1152 19.3026C17.8351 19.3026 18.4186 18.9769 18.4186 18.5752C18.4186 18.1734 17.8351 17.8477 17.1152 17.8477C16.3954 17.8477 15.8118 18.1734 15.8118 18.5752C15.8118 18.9769 16.3954 19.3026 17.1152 19.3026Z" fill="#D5D5CE" fill-opacity="0.9"/>
<path fill-rule="evenodd" clip-rule="evenodd" d="M20.8075 10.3319C20.8075 11.4701 19.1544 12.3927 17.1152 12.3927C15.076 12.3927 13.4229 11.4701 13.4229 10.3319C13.4229 9.19377 15.076 8.27112 17.1152 8.27112C19.1544 8.27112 20.8075 9.19377 20.8075 10.3319ZM18.4186 10.3319C18.4186 10.7337 17.8351 11.0594 17.1152 11.0594C16.3954 11.0594 15.8118 10.7337 15.8118 10.3319C15.8118 9.93015 16.3954 9.60445 17.1152 9.60445C17.8351 9.60445 18.4186 9.93015 18.4186 10.3319Z" fill="#D5D5CE" fill-opacity="0.9"/>
<path fill-rule="evenodd" clip-rule="evenodd" d="M7.88459 14.4536C7.88459 15.5917 6.23149 16.5144 4.19229 16.5144C2.1531 16.5144 0.5 15.5917 0.5 14.4536C0.5 13.3154 2.1531 12.3927 4.19229 12.3927C6.23149 12.3927 7.88459 13.3154 7.88459 14.4536ZM5.49569 14.4536C5.49569 14.8553 4.91214 15.181 4.19229 15.181C3.47245 15.181 2.8889 14.8553 2.8889 14.4536C2.8889 14.0518 3.47245 13.7261 4.19229 13.7261C4.91214 13.7261 5.49569 14.0518 5.49569 14.4536Z" fill="#D5D5CE" fill-opacity="0.9"/>
</svg>
